<svg width="101" height="100" viewBox="0 0 101 100" fill="none" xmlns="http://www.w3.org/2000/svg">
<g filter="url(#filter0_b_0_1)">
<path d="M50.3701 99.92C77.9843 99.92 100.37 77.5343 100.37 49.92C100.37 22.3058 77.9843 -0.0799561 50.3701 -0.0799561C22.7559 -0.0799561 0.370117 22.3058 0.370117 49.92C0.370117 77.5343 22.7559 99.92 50.3701 99.92Z" fill="url(#paint0_linear_0_1)" fill-opacity="0.1"/>
<path d="M99.8701 49.92C99.8701 77.2581 77.7082 99.42 50.3701 99.42C23.032 99.42 0.870117 77.2581 0.870117 49.92C0.870117 22.5819 23.032 0.420044 50.3701 0.420044C77.7082 0.420044 99.8701 22.5819 99.8701 49.92Z" stroke="url(#paint1_linear_0_1)"/>
</g>
<path d="M75.2872 49.921C75.2872 63.6814 64.1305 74.838 50.3642 74.84C36.6078 74.84 25.4511 63.6814 25.4531 49.919C25.4491 36.1566 36.6058 25 50.3682 25C64.1305 25 75.2872 36.1586 75.2872 49.921Z" fill="#EAB300"/>
<path fill-rule="evenodd" clip-rule="evenodd" d="M60.173 43.8163C59.852 40.4789 56.9711 39.3605 53.3307 39.0415V34.4102H50.5136V38.9179C49.7739 38.9179 49.0163 38.9318 48.2647 38.9478V34.4102H45.4477L45.4457 39.0375L45.4155 39.0381L45.4154 39.0381C44.8158 39.0498 44.2258 39.0614 43.6513 39.0614V39.0475L39.7657 39.0455V42.0559C39.7657 42.0559 41.8471 42.016 41.8112 42.0539C42.9536 42.0539 43.3244 42.7158 43.432 43.288V48.5633C43.5118 48.5633 43.6135 48.5673 43.7291 48.5832H43.432L43.4301 55.9738C43.3802 56.3327 43.1689 56.9049 42.3714 56.9068C42.4073 56.9387 40.3239 56.9068 40.3239 56.9068L39.7637 60.2722H43.432C43.8457 60.2722 44.2556 60.2766 44.661 60.2809C44.9239 60.2838 45.1849 60.2866 45.4437 60.2881L45.4457 64.9713H48.2607V60.338C49.0323 60.3539 49.7799 60.3599 50.5116 60.3599L50.5096 64.9713H53.3267V60.2981C58.0637 60.027 61.3831 58.8327 61.7938 54.3828C62.1268 50.8002 60.4421 49.1993 57.7527 48.5533C59.3895 47.724 60.4122 46.2586 60.173 43.8163ZM56.2296 53.8286C56.2296 57.0424 51.1752 56.9696 48.8699 56.9364C48.6653 56.9334 48.4824 56.9308 48.3266 56.9308V50.7244C48.5214 50.7249 48.7584 50.7195 49.0271 50.7135C51.3968 50.6603 56.2296 50.5518 56.2296 53.8286ZM48.7978 47.8926C50.7268 47.9231 54.9177 47.9892 54.9177 45.0744C54.9195 42.0911 50.8811 42.1979 48.9067 42.2502C48.6842 42.2561 48.488 42.2613 48.3266 42.2613V47.8874C48.4611 47.8873 48.6198 47.8898 48.7978 47.8926Z" fill="white"/>
<path d="M43.4361 48.4397H43.8548V48.7487H43.4361V48.4397Z" fill="white"/>
<defs>
<filter id="filter0_b_0_1" x="-99.6299" y="-100.08" width="300" height="300" filterUnits="userSpaceOnUse" color-interpolation-filters="sRGB">
<feFlood flood-opacity="0" result="BackgroundImageFix"/>
<feGaussianBlur in="BackgroundImageFix" stdDeviation="50"/>
<feComposite in2="SourceAlpha" operator="in" result="effect1_backgroundBlur_0_1"/>
<feBlend mode="normal" in="SourceGraphic" in2="effect1_backgroundBlur_0_1" result="shape"/>
</filter>
<linearGradient id="paint0_linear_0_1" x1="50.3701" y1="-0.0799561" x2="50.3701" y2="99.92" gradientUnits="userSpaceOnUse">
<stop stop-color="#626A88"/>
<stop offset="1" stop-color="#EAB300" stop-opacity="0.6"/>
</linearGradient>
<linearGradient id="paint1_linear_0_1" x1="50.3701" y1="-0.0799561" x2="50.3701" y2="99.92" gradientUnits="userSpaceOnUse">
<stop stop-color="#ECF0FF" stop-opacity="0.1"/>
<stop offset="1" stop-color="#3B3F57" stop-opacity="0"/>
</linearGradient>
</defs>
</svg>
