<svg width="100" height="100" viewBox="0 0 100 100" fill="none" xmlns="http://www.w3.org/2000/svg">
<g filter="url(#filter0_b_0_1)">
<path d="M50 100C77.6142 100 100 77.6142 100 50C100 22.3858 77.6142 0 50 0C22.3858 0 0 22.3858 0 50C0 77.6142 22.3858 100 50 100Z" fill="url(#paint0_linear_0_1)" fill-opacity="0.1"/>
<path d="M99.5 50C99.5 77.3381 77.3381 99.5 50 99.5C22.6619 99.5 0.5 77.3381 0.5 50C0.5 22.6619 22.6619 0.5 50 0.5C77.3381 0.5 99.5 22.6619 99.5 50Z" stroke="url(#paint1_linear_0_1)"/>
</g>
<path fill-rule="evenodd" clip-rule="evenodd" d="M50 75C36.25 75 25 63.7502 25 49.8755C25.125 36.1258 36.25 24.876 50.125 25.001C63.875 25.126 75 36.2508 75 50.2505C74.875 63.8752 63.75 75 50 75Z" fill="#E42D04"/>
<path fill-rule="evenodd" clip-rule="evenodd" d="M50.4868 68.3333C52.3014 68.3333 56.9561 67.5153 61.0586 64.2432C65.7759 60.4805 66.2204 58.3821 66.5071 57.0291C66.532 56.9114 66.5557 56.7993 66.5811 56.6921C66.6289 56.4894 66.6568 56.2141 66.6665 55.8869C65.6756 55.7264 64.2867 55.6345 62.6659 55.8269C60.0151 56.1415 57.9323 57.9506 57.2223 58.8159C56.8278 56.8494 54.9028 52.9166 50.3585 52.9166C45.8143 52.9166 43.3633 56.8494 42.7059 58.8159C42.2851 58.0817 40.7177 56.4562 37.8145 55.8269C36.0193 55.4379 34.4535 55.6301 33.3331 55.9575C33.4216 57.4197 33.9022 58.9793 35.1814 60.625C37.3825 63.4566 40.7979 65.2051 42.3216 65.9852C42.4909 66.0719 42.6369 66.1466 42.7552 66.2096C43.9386 66.8388 47.1732 68.3333 50.4868 68.3333Z" fill="white"/>
<path fill-rule="evenodd" clip-rule="evenodd" d="M66.6629 55.8294C65.6725 55.6694 64.2845 55.5777 62.6647 55.7696C60.0154 56.0833 57.9338 57.8872 57.2242 58.75C56.8299 56.7892 54.906 52.8676 50.3644 52.8676C45.8228 52.8676 43.3733 56.7892 42.7162 58.75C42.2957 58.0179 40.7292 56.397 37.8276 55.7696C36.0336 55.3817 34.4686 55.5734 33.3489 55.8999C33.2683 54.5702 33.5136 53.3214 33.7769 52.1617C34.2184 50.2166 35.3275 47.6389 35.8269 46.5931C35.3801 45.5212 34.3446 42.4833 33.7769 38.9068C33.2092 35.3304 34.1711 32.9199 34.723 32.1617C35.6166 32.397 37.7508 33.1343 39.1385 34.201C40.5262 35.2676 42.6604 37.6258 43.554 38.6715C44.7104 38.3578 47.6856 37.7304 50.3349 37.7304C52.9842 37.7304 55.5389 38.3578 56.4851 38.6715C57.2735 37.7304 59.2132 35.5186 60.664 34.201C62.1148 32.8833 64.4748 32.2402 65.4737 32.0833C65.7364 32.4232 66.2937 33.4166 66.4199 34.6715C66.5776 36.2402 66.1045 39.5343 65.4737 41.7304C64.9691 43.4872 64.3172 45.5474 64.0544 46.3578C64.1858 46.6454 64.6379 47.5814 65.3948 49.0245C66.1975 50.5548 66.7163 54.0041 66.6629 55.8294Z" fill="#FFAA35"/>
<path d="M53.7238 62.8091C53.5363 63.06 53.3331 63.5409 53.255 63.75V63.6716L53.0206 61.7899C52.578 61.8421 51.4269 61.9467 50.3644 61.9467C49.3019 61.9467 48.0467 61.8421 47.5519 61.7899L47.4738 63.6716C47.4217 63.5932 47.2863 63.3736 47.1613 63.1227C47.005 62.8091 46.4581 62.3387 46.4581 62.1035C46.4581 61.9153 46.1977 61.5025 46.0675 61.3195L45.8331 61.0059H47.2394L47.5519 61.2411C47.8123 61.2149 48.4738 61.194 49.0363 61.3195C49.5988 61.4449 49.9477 60.9536 50.0519 60.6922V59.4378C49.8175 59.281 49.2394 58.9203 48.8019 58.7322C48.255 58.497 47.7081 57.5561 47.8644 56.6153C48.0206 55.6745 48.4894 55.3609 48.8019 55.4393C49.1144 55.5177 51.1456 55.3609 51.4581 55.4393C51.7706 55.5177 52.3175 55.6745 52.5519 56.0665C52.7863 56.4585 52.63 58.0266 52.1613 58.5754C51.7863 59.0144 51.0675 59.3332 50.755 59.4378V60.6922C50.755 60.8491 51.3019 61.2411 51.38 61.3195C51.4581 61.3979 52.63 61.3195 52.8644 61.3195C53.0519 61.3195 53.203 61.1627 53.255 61.0843H54.5831V61.3979C54.5831 61.5547 54.3488 62.2603 54.2706 62.3387C54.1925 62.4171 53.9581 62.4955 53.7238 62.8091Z" fill="black"/>
<path d="M51.2101 62.2916L50.4165 62.9166L49.7816 62.2916L49.226 62.5694L48.7498 62.0833H52.0832L51.607 62.6389L51.2101 62.2916Z" fill="black"/>
<path d="M42.6687 49.4712C41.7389 49.0865 40.7316 48.8301 40.3442 48.75C40.2409 48.8034 40.0343 48.9744 40.0343 49.2308C40.0343 49.5513 39.9568 49.8718 40.0343 50.5128C40.1117 51.1538 40.7316 51.5545 41.8164 52.0353C42.9012 52.516 44.7608 52.9167 46.078 52.9167C47.3953 52.9167 46.1555 51.5545 45.6906 51.234C45.2257 50.9135 43.831 49.9519 42.6687 49.4712Z" fill="black"/>
<path d="M43.9412 47.3447C43.2464 47.4689 42.283 47.5 41.8882 47.5C41.4934 47.4483 40.6564 47.2049 40.4669 46.6457C40.23 45.9467 40.8617 45.1701 41.6513 44.7818C42.441 44.3935 43.4675 44.5488 44.0991 45.4807C44.7308 46.4127 44.8098 47.1893 43.9412 47.3447Z" fill="white"/>
<path d="M58.1643 49.0545C59.0941 48.6699 60.1014 48.4134 60.4888 48.3333C60.5922 48.3867 60.7987 48.5577 60.7987 48.8141C60.7987 49.1346 60.8762 49.4551 60.7987 50.0961C60.7212 50.7372 60.1014 51.1378 59.0166 51.6186C57.9318 52.0993 56.0722 52.5 54.755 52.5C53.4377 52.5 54.6775 51.1378 55.1424 50.8173C55.6073 50.4968 57.002 49.5352 58.1643 49.0545Z" fill="black"/>
<path d="M55.6418 47.3447C56.3366 47.4689 57.3 47.5 57.6948 47.5C58.0896 47.4482 58.9266 47.2049 59.1161 46.6457C59.3529 45.9467 58.7213 45.1701 57.9316 44.7818C57.142 44.3935 56.1155 44.5488 55.4838 45.4807C54.8522 46.4127 54.7732 47.1893 55.6418 47.3447Z" fill="white"/>
<path d="M38.512 41.531C37.9442 42.1511 36.8559 43.5465 36.3827 44.1666C36.0673 43.4948 35.3733 41.7015 35.1209 39.9031C34.8686 38.1046 35.0684 35.3294 35.1998 34.1666C35.5415 34.1925 36.5405 34.4767 37.8023 35.4069C39.064 36.3372 40.9042 38.0684 41.6665 38.8178C40.8516 39.4638 39.0798 40.9108 38.512 41.531Z" fill="#FF8C30"/>
<path fill-rule="evenodd" clip-rule="evenodd" d="M34.9998 35.6433C36.24 36.1608 37.8725 36.9519 38.5566 37.6669C39.2506 38.3923 39.8611 39.3524 40.2236 40C40.7677 39.5488 41.3085 39.1154 41.6665 38.8337C40.8957 38.0818 39.0351 36.3446 37.7592 35.4112C36.4834 34.4778 35.4734 34.1926 35.1278 34.1666C35.0866 34.5288 35.0387 35.0469 34.9998 35.6433Z" fill="#FF9A32"/>
<path d="M61.071 41.531C61.6388 42.1511 62.7271 43.5465 63.2003 44.1666C63.5157 43.4948 64.2097 41.7015 64.4621 39.9031C64.7144 38.1046 64.5146 35.3294 64.3832 34.1666C64.0414 34.1925 63.0425 34.4767 61.7807 35.4069C60.519 36.3372 58.6788 38.0684 57.9165 38.8178C58.7315 39.4638 60.5032 40.9108 61.071 41.531Z" fill="#FF8C30"/>
<path fill-rule="evenodd" clip-rule="evenodd" d="M64.5832 35.6433C63.3429 36.1608 61.7105 36.9519 61.0263 37.6669C60.3323 38.3923 59.7218 39.3524 59.3595 40C58.8153 39.5488 58.2745 39.1154 57.9165 38.8337C58.6873 38.0818 60.5479 36.3446 61.8237 35.4112C63.0995 34.4778 64.1095 34.1926 64.4551 34.1666C64.4964 34.5288 64.5443 35.0469 64.5832 35.6433Z" fill="#FF9A32"/>
<defs>
<filter id="filter0_b_0_1" x="-100" y="-100" width="300" height="300" filterUnits="userSpaceOnUse" color-interpolation-filters="sRGB">
<feFlood flood-opacity="0" result="BackgroundImageFix"/>
<feGaussianBlur in="BackgroundImageFix" stdDeviation="50"/>
<feComposite in2="SourceAlpha" operator="in" result="effect1_backgroundBlur_0_1"/>
<feBlend mode="normal" in="SourceGraphic" in2="effect1_backgroundBlur_0_1" result="shape"/>
</filter>
<linearGradient id="paint0_linear_0_1" x1="50" y1="0" x2="50" y2="100" gradientUnits="userSpaceOnUse">
<stop stop-color="#626A88"/>
<stop offset="1" stop-color="#E42D04"/>
</linearGradient>
<linearGradient id="paint1_linear_0_1" x1="50" y1="0" x2="50" y2="100" gradientUnits="userSpaceOnUse">
<stop stop-color="#ECF0FF" stop-opacity="0.1"/>
<stop offset="1" stop-color="#3B3F57" stop-opacity="0"/>
</linearGradient>
</defs>
</svg>
